<svg width="101" height="101" viewBox="0 0 101 101" fill="none" xmlns="http://www.w3.org/2000/svg">
<path d="M50.5003 40.5837C55.7604 40.5837 60.8051 38.4941 64.5246 34.7746C68.2441 31.0551 70.3337 26.0105 70.3337 20.7503C70.3337 15.4902 68.2441 10.4455 64.5246 6.72604C60.8051 3.00657 55.7604 0.916992 50.5003 0.916992C45.2402 0.916992 40.1955 3.00657 36.476 6.72604C32.7566 10.4455 30.667 15.4902 30.667 20.7503C30.667 26.0105 32.7566 31.0551 36.476 34.7746C40.1955 38.4941 45.2402 40.5837 50.5003 40.5837ZM18.2712 55.4587C21.5587 55.4587 24.7117 54.1527 27.0363 51.828C29.361 49.5033 30.667 46.3504 30.667 43.0628C30.667 39.7752 29.361 36.6223 27.0363 34.2976C24.7117 31.973 21.5587 30.667 18.2712 30.667C14.9836 30.667 11.8307 31.973 9.50598 34.2976C7.18131 36.6223 5.87533 39.7752 5.87533 43.0628C5.87533 46.3504 7.18131 49.5033 9.50598 51.828C11.8307 54.1527 14.9836 55.4587 18.2712 55.4587ZM95.1253 43.0628C95.1253 46.3504 93.8193 49.5033 91.4947 51.828C89.17 54.1527 86.0171 55.4587 82.7295 55.4587C79.4419 55.4587 76.289 54.1527 73.9643 51.828C71.6396 49.5033 70.3337 46.3504 70.3337 43.0628C70.3337 39.7752 71.6396 36.6223 73.9643 34.2976C76.289 31.973 79.4419 30.667 82.7295 30.667C86.0171 30.667 89.17 31.973 91.4947 34.2976C93.8193 36.6223 95.1253 39.7752 95.1253 43.0628ZM50.5003 45.542C57.0755 45.542 63.3813 48.154 68.0307 52.8033C72.68 57.4526 75.292 63.7585 75.292 70.3337V100.084H25.7087V70.3337C25.7087 63.7585 28.3206 57.4526 32.97 52.8033C37.6193 48.154 43.9252 45.542 50.5003 45.542ZM15.792 70.3337C15.792 66.8975 16.2878 63.5804 17.22 60.4467L16.3771 60.5162C12.1272 60.9828 8.19911 63.0018 5.34609 66.1861C2.49306 69.3703 0.915883 73.4957 0.916993 77.7712V100.084H15.792V70.3337ZM100.084 100.084V77.7712C100.084 73.3501 98.3974 69.0956 95.3676 65.876C92.3379 62.6564 88.1935 60.7145 83.7807 60.4467C84.7079 63.5804 85.2087 66.8975 85.2087 70.3337V100.084H100.084Z" fill="#757575"/>
</svg>
